<svg width="200" height="89" viewBox="0 0 200 89" fill="none" xmlns="http://www.w3.org/2000/svg">
<rect x="3" y="86" width="194" height="3" fill="#0033A0"/>
<path d="M14.0267 33.28C11.9734 33.28 10.1334 32.9467 8.50672 32.28C6.88005 31.6133 5.57339 30.6267 4.58672 29.32C3.62672 28.0133 3.12005 26.44 3.06672 24.6H10.3467C10.4534 25.64 10.8134 26.44 11.4267 27C12.0401 27.5333 12.8401 27.8 13.8267 27.8C14.8401 27.8 15.6401 27.5733 16.2267 27.12C16.8134 26.64 17.1067 25.9867 17.1067 25.16C17.1067 24.4667 16.8667 23.8933 16.3867 23.44C15.9334 22.9867 15.3601 22.6133 14.6667 22.32C14.0001 22.0267 13.0401 21.6933 11.7867 21.32C9.97339 20.76 8.49339 20.2 7.34672 19.64C6.20005 19.08 5.21339 18.2533 4.38672 17.16C3.56005 16.0667 3.14672 14.64 3.14672 12.88C3.14672 10.2667 4.09339 8.22667 5.98672 6.76C7.88005 5.26667 10.3467 4.52 13.3867 4.52C16.4801 4.52 18.9734 5.26667 20.8667 6.76C22.7601 8.22667 23.7734 10.28 23.9067 12.92H16.5067C16.4534 12.0133 16.1201 11.3067 15.5067 10.8C14.8934 10.2667 14.1067 10 13.1467 10C12.3201 10 11.6534 10.2267 11.1467 10.68C10.6401 11.1067 10.3867 11.7333 10.3867 12.56C10.3867 13.4667 10.8134 14.1733 11.6667 14.68C12.5201 15.1867 13.8534 15.7333 15.6667 16.32C17.4801 16.9333 18.9467 17.52 20.0667 18.08C21.2134 18.64 22.2001 19.4533 23.0267 20.52C23.8534 21.5867 24.2667 22.96 24.2667 24.64C24.2667 26.24 23.8534 27.6933 23.0267 29C22.2267 30.3067 21.0534 31.3467 19.5067 32.12C17.9601 32.8933 16.1334 33.28 14.0267 33.28ZM48.6761 4.92V10.4H41.2361V33H34.3961V10.4H26.9561V4.92H48.6761ZM69.5889 28.04H59.1089L57.4289 33H50.2689L60.4289 4.92H68.3489L78.5089 33H71.2689L69.5889 28.04ZM67.8289 22.76L64.3489 12.48L60.9089 22.76H67.8289ZM98.6011 18.6C100.228 18.9467 101.534 19.76 102.521 21.04C103.508 22.2933 104.001 23.7333 104.001 25.36C104.001 27.7067 103.174 29.5733 101.521 30.96C99.8944 32.32 97.6144 33 94.6811 33H81.6011V4.92H94.2411C97.0944 4.92 99.3211 5.57333 100.921 6.88C102.548 8.18667 103.361 9.96 103.361 12.2C103.361 13.8533 102.921 15.2267 102.041 16.32C101.188 17.4133 100.041 18.1733 98.6011 18.6ZM88.4411 16.28H92.9211C94.0411 16.28 94.8944 16.04 95.4811 15.56C96.0944 15.0533 96.4011 14.32 96.4011 13.36C96.4011 12.4 96.0944 11.6667 95.4811 11.16C94.8944 10.6533 94.0411 10.4 92.9211 10.4H88.4411V16.28ZM93.4811 27.48C94.6278 27.48 95.5078 27.2267 96.1211 26.72C96.7611 26.1867 97.0811 25.4267 97.0811 24.44C97.0811 23.4533 96.7478 22.68 96.0811 22.12C95.4411 21.56 94.5478 21.28 93.4011 21.28H88.4411V27.48H93.4811ZM114.808 4.92V33H107.968V4.92H114.808ZM126.605 27.72H135.565V33H119.765V4.92H126.605V27.72ZM145.668 4.92V33H138.828V4.92H145.668ZM170.825 4.92V10.4H163.385V33H156.545V10.4H149.105V4.92H170.825ZM198.337 4.92L188.617 23.72V33H181.777V23.72L172.057 4.92H179.817L185.257 16.68L190.657 4.92H198.337Z" fill="white"/>
<path d="M11.1487 44.708V77H3.28266V44.708H11.1487ZM15.5151 60.808C15.5151 57.6187 16.2051 54.782 17.5851 52.298C18.9651 49.7833 20.8817 47.836 23.3351 46.456C25.8191 45.0453 28.6251 44.34 31.7531 44.34C35.5864 44.34 38.8677 45.352 41.5971 47.376C44.3264 49.4 46.1511 52.16 47.0711 55.656H38.4231C37.7791 54.3067 36.8591 53.2793 35.6631 52.574C34.4977 51.8687 33.1637 51.516 31.6611 51.516C29.2384 51.516 27.2757 52.3593 25.7731 54.046C24.2704 55.7327 23.5191 57.9867 23.5191 60.808C23.5191 63.6293 24.2704 65.8833 25.7731 67.57C27.2757 69.2567 29.2384 70.1 31.6611 70.1C33.1637 70.1 34.4977 69.7473 35.6631 69.042C36.8591 68.3367 37.7791 67.3093 38.4231 65.96H47.0711C46.1511 69.456 44.3264 72.216 41.5971 74.24C38.8677 76.2333 35.5864 77.23 31.7531 77.23C28.6251 77.23 25.8191 76.54 23.3351 75.16C20.8817 73.7493 18.9651 71.802 17.5851 69.318C16.2051 66.834 15.5151 63.9973 15.5151 60.808ZM63.5721 77.322C61.2108 77.322 59.0948 76.9387 57.2241 76.172C55.3535 75.4053 53.8508 74.2707 52.7161 72.768C51.6121 71.2653 51.0295 69.456 50.9681 67.34H59.3401C59.4628 68.536 59.8768 69.456 60.5821 70.1C61.2875 70.7133 62.2075 71.02 63.3421 71.02C64.5075 71.02 65.4275 70.7593 66.1021 70.238C66.7768 69.686 67.1141 68.9347 67.1141 67.984C67.1141 67.1867 66.8381 66.5273 66.2861 66.006C65.7648 65.4847 65.1055 65.0553 64.3081 64.718C63.5415 64.3807 62.4375 63.9973 60.9961 63.568C58.9108 62.924 57.2088 62.28 55.8901 61.636C54.5715 60.992 53.4368 60.0413 52.4861 58.784C51.5355 57.5267 51.0601 55.886 51.0601 53.862C51.0601 50.8567 52.1488 48.5107 54.3261 46.824C56.5035 45.1067 59.3401 44.248 62.8361 44.248C66.3935 44.248 69.2608 45.1067 71.4381 46.824C73.6155 48.5107 74.7808 50.872 74.9341 53.908H66.4241C66.3628 52.8653 65.9795 52.0527 65.2741 51.47C64.5688 50.8567 63.6641 50.55 62.5601 50.55C61.6095 50.55 60.8428 50.8107 60.2601 51.332C59.6775 51.8227 59.3861 52.5433 59.3861 53.494C59.3861 54.5367 59.8768 55.3493 60.8581 55.932C61.8395 56.5147 63.3728 57.1433 65.4581 57.818C67.5435 58.5233 69.2301 59.198 70.5181 59.842C71.8368 60.486 72.9715 61.4213 73.9221 62.648C74.8728 63.8747 75.3481 65.454 75.3481 67.386C75.3481 69.226 74.8728 70.8973 73.9221 72.4C73.0021 73.9027 71.6528 75.0987 69.8741 75.988C68.0955 76.8773 65.9948 77.322 63.5721 77.322ZM88.879 70.698C89.9216 69.87 90.397 69.4867 90.305 69.548C93.3103 67.064 95.6716 65.0247 97.389 63.43C99.137 61.8353 100.609 60.164 101.805 58.416C103.001 56.668 103.599 54.966 103.599 53.31C103.599 52.0527 103.308 51.0713 102.725 50.366C102.142 49.6607 101.268 49.308 100.103 49.308C98.9376 49.308 98.0176 49.7527 97.343 50.642C96.699 51.5007 96.377 52.7273 96.377 54.322H88.787C88.8483 51.7153 89.4003 49.538 90.443 47.79C91.5163 46.042 92.9116 44.754 94.629 43.926C96.377 43.098 98.309 42.684 100.425 42.684C104.074 42.684 106.819 43.6193 108.659 45.49C110.53 47.3607 111.465 49.7987 111.465 52.804C111.465 56.0853 110.346 59.1367 108.107 61.958C105.868 64.7487 103.016 67.478 99.551 70.146H111.971V76.54H88.879V70.698ZM115.434 59.75C115.434 54.4753 116.446 50.32 118.47 47.284C120.525 44.248 123.822 42.73 128.36 42.73C132.899 42.73 136.18 44.248 138.204 47.284C140.259 50.32 141.286 54.4753 141.286 59.75C141.286 65.086 140.259 69.272 138.204 72.308C136.18 75.344 132.899 76.862 128.36 76.862C123.822 76.862 120.525 75.344 118.47 72.308C116.446 69.272 115.434 65.086 115.434 59.75ZM133.558 59.75C133.558 56.6527 133.221 54.276 132.546 52.62C131.872 50.9333 130.476 50.09 128.36 50.09C126.244 50.09 124.849 50.9333 124.174 52.62C123.5 54.276 123.162 56.6527 123.162 59.75C123.162 61.8353 123.285 63.568 123.53 64.948C123.776 66.2973 124.266 67.4013 125.002 68.26C125.769 69.088 126.888 69.502 128.36 69.502C129.832 69.502 130.936 69.088 131.672 68.26C132.439 67.4013 132.945 66.2973 133.19 64.948C133.436 63.568 133.558 61.8353 133.558 59.75ZM145.166 70.698C146.209 69.87 146.684 69.4867 146.592 69.548C149.597 67.064 151.959 65.0247 153.676 63.43C155.424 61.8353 156.896 60.164 158.092 58.416C159.288 56.668 159.886 54.966 159.886 53.31C159.886 52.0527 159.595 51.0713 159.012 50.366C158.429 49.6607 157.555 49.308 156.39 49.308C155.225 49.308 154.305 49.7527 153.63 50.642C152.986 51.5007 152.664 52.7273 152.664 54.322H145.074C145.135 51.7153 145.687 49.538 146.73 47.79C147.803 46.042 149.199 44.754 150.916 43.926C152.664 43.098 154.596 42.684 156.712 42.684C160.361 42.684 163.106 43.6193 164.946 45.49C166.817 47.3607 167.752 49.7987 167.752 52.804C167.752 56.0853 166.633 59.1367 164.394 61.958C162.155 64.7487 159.303 67.478 155.838 70.146H168.258V76.54H145.166V70.698ZM195.365 50.274H181.013V56.622C181.627 55.9473 182.485 55.3953 183.589 54.966C184.693 54.5367 185.889 54.322 187.177 54.322C189.477 54.322 191.379 54.8433 192.881 55.886C194.415 56.9287 195.534 58.278 196.239 59.934C196.945 61.59 197.297 63.384 197.297 65.316C197.297 68.904 196.285 71.756 194.261 73.872C192.237 75.9573 189.385 77 185.705 77C183.252 77 181.121 76.586 179.311 75.758C177.502 74.8993 176.107 73.7187 175.125 72.216C174.144 70.7133 173.607 68.9807 173.515 67.018H181.197C181.381 67.9687 181.826 68.766 182.531 69.41C183.237 70.0233 184.203 70.33 185.429 70.33C186.871 70.33 187.944 69.87 188.649 68.95C189.355 68.03 189.707 66.8033 189.707 65.27C189.707 63.7673 189.339 62.6173 188.603 61.82C187.867 61.0227 186.794 60.624 185.383 60.624C184.341 60.624 183.482 60.8847 182.807 61.406C182.133 61.8967 181.688 62.556 181.473 63.384H173.883V43.374H195.365V50.274Z" fill="#0033A0"/>
</svg>
