<?xml version="1.0" standalone="no"?>
<!DOCTYPE svg PUBLIC "-//W3C//DTD SVG 20010904//EN"
 "http://www.w3.org/TR/2001/REC-SVG-20010904/DTD/svg10.dtd">
<svg version="1.0" xmlns="http://www.w3.org/2000/svg"
 width="512.000000pt" height="512.000000pt" viewBox="0 0 512.000000 512.000000"
 preserveAspectRatio="xMidYMid meet">
<metadata>
Created by potrace 1.14, written by Peter Selinger 2001-2017
</metadata>
<g transform="translate(0.000000,512.000000) scale(0.100000,-0.100000)"
fill="#000000" stroke="none">
<path d="M999 5116 c-2 -2 -24 -6 -49 -10 -222 -29 -446 -143 -620 -316 -73
-73 -170 -197 -170 -218 0 -6 -3 -12 -8 -14 -21 -9 -115 -242 -127 -318 -3
-14 -9 -52 -14 -85 -13 -81 -13 -3096 0 -3190 63 -450 389 -812 841 -933 l103
-27 1585 0 c872 0 1607 4 1634 8 350 57 665 286 821 597 23 47 54 121 68 165
59 180 56 101 54 1810 -1 864 -6 1584 -10 1600 -5 17 -12 49 -18 73 -16 72
-50 163 -90 242 -39 76 -70 131 -79 140 -3 3 -18 23 -34 45 -49 66 -179 189
-252 237 -95 63 -215 122 -299 146 -179 53 -112 51 -1781 51 -853 1 -1553 -1
-1555 -3z"/>
</g>
</svg>
